<?xml version="1.0" encoding="UTF-8" standalone="no"?>
<!-- Created with Inkscape (http://www.inkscape.org/) -->

<svg
   xmlns:dc="http://purl.org/dc/elements/1.1/"
   xmlns:cc="http://creativecommons.org/ns#"
   xmlns:rdf="http://www.w3.org/1999/02/22-rdf-syntax-ns#"
   xmlns:svg="http://www.w3.org/2000/svg"
   xmlns="http://www.w3.org/2000/svg"
   xmlns:xlink="http://www.w3.org/1999/xlink"
   xmlns:sodipodi="http://sodipodi.sourceforge.net/DTD/sodipodi-0.dtd"
   xmlns:inkscape="http://www.inkscape.org/namespaces/inkscape"
   id="svg3036"
   version="1.1"
   inkscape:version="0.48.4 r9939"
   width="300"
   height="300"
   sodipodi:docname="logo.png">
  <metadata
     id="metadata3042">
    <rdf:RDF>
      <cc:Work
         rdf:about="">
        <dc:format>image/svg+xml</dc:format>
        <dc:type
           rdf:resource="http://purl.org/dc/dcmitype/StillImage" />
        <dc:title></dc:title>
      </cc:Work>
    </rdf:RDF>
  </metadata>
  <defs
     id="defs3040" />
  <sodipodi:namedview
     pagecolor="#ffffff"
     bordercolor="#666666"
     borderopacity="1"
     objecttolerance="10"
     gridtolerance="10"
     guidetolerance="10"
     inkscape:pageopacity="0"
     inkscape:pageshadow="2"
     inkscape:window-width="1181"
     inkscape:window-height="819"
     id="namedview3038"
     showgrid="false"
     inkscape:zoom="3.3666667"
     inkscape:cx="150"
     inkscape:cy="150"
     inkscape:window-x="59"
     inkscape:window-y="34"
     inkscape:window-maximized="0"
     inkscape:current-layer="svg3036" />
  <image
     width="300"
     height="300"
     xlink:href="file:///home/www/Work/WPThemes/wp-content/themes/Cyrano/assets/img/logo.png"
     id="image3044"
     x="0"
     y="0" />
  <g
     id="g3066">
    <path
       style="fill:#fafafa"
       d="M 0,150 0,0 l 150,0 150,0 0,150 0,150 -150,0 -150,0 0,-150 z"
       id="path3070"
       inkscape:connector-curvature="0" />
    <path
       style="fill:#0f0f0f"
       d="m 141.49966,267.52522 c -5.2453,-4.66113 -10.46935,-8.97381 -11.60901,-9.58374 -3.214,-1.72009 -6.64302,0.25548 -14.93813,8.60632 -8.53022,8.58753 -10.85604,9.23183 -16.24505,4.50022 C 94.093878,266.99723 92.764212,262.04907 94.395062,255 l 1.272463,-5.5 0.689402,3.63194 C 97.153016,257.32593 102.35552,265 104.40268,265 c 1.79004,0 7.03323,-5.97397 9.51809,-10.8447 2.93439,-5.75188 4.35353,-6.47574 13.65258,-6.96382 l 8.42718,-0.44231 2.74973,3.23638 C 146.77014,259.42476 152.51105,265 154.21086,265 c 2.72248,0 9.40083,-5.66192 11.23334,-9.52365 1.95996,-4.13031 1.97073,-8.15709 0.0318,-11.87513 -0.83144,-1.59433 -1.2769,-3.13361 -0.98989,-3.42061 1.14977,-1.14977 5.52385,4.36345 6.13228,7.72932 0.35693,1.97454 1.26381,4.80522 2.01531,6.29041 4.94351,9.76993 -4.05279,21.74449 -16.36537,21.78321 -5.15493,0.0162 -5.37171,-0.10795 -14.76862,-8.45833 z M 114.9,262.92139 c 1.25186,-1.69324 2.08019,-3.27454 1.84072,-3.514 -0.7751,-0.77511 -5.74072,3.69269 -5.74072,5.16519 0,2.27946 1.44683,1.66689 3.9,-1.65119 z m 31.1,2.1675 C 146,263.88765 140.16194,259 138.72711,259 c -0.61569,0 0.40711,1.575 2.27289,3.5 3.37678,3.48395 5,4.32442 5,2.58889 z M 72,222.82641 C 63.559021,221.62294 49.012843,216.72478 42.020873,212.73147 24.804987,202.89901 20.380145,188.48198 30.198437,174.21158 37.214361,164.01429 60.117872,149.50267 80.273692,142.484 c 8.379035,-2.91775 12.359727,-4.80577 12.870007,-6.10417 0.406333,-1.03391 1.430682,-7.22191 2.276332,-13.75112 0.914571,-7.06135 2.255197,-13.08723 3.308757,-14.8723 3.579312,-6.06449 17.656602,-12.601049 34.851382,-16.182676 16.367,-3.409202 28.38824,-3.942255 47.74807,-2.117273 17.3863,1.638946 18.30143,1.833307 21.17176,4.496584 1.65,1.530977 3.89659,3.25929 4.99242,3.840694 1.09584,0.581405 1.99584,1.8708 2,2.865321 0.004,0.99452 0.73684,1.94987 1.62816,2.12298 1.25706,0.24415 1.50778,-0.27532 1.11772,-2.31579 -0.27657,-1.446795 -1.11833,-2.86672 -1.87058,-3.155384 C 209.61547,97.022202 209,96.170723 209,95.418691 209,94.666659 207.65,93.353248 206,92.5 c -1.65,-0.853248 -3,-2.214804 -3,-3.02568 0,-1.750854 0.48824,-1.818571 3.08641,-0.428076 3.29298,1.762351 4.0439,0.129507 1.88583,-4.100664 C 206.78217,82.612852 205.2413,81 204.20276,81 c -0.96612,0 -4.01633,-1.6875 -6.77824,-3.75 -8.81522,-6.582901 -9.86038,-6.919803 -15.38257,-4.958495 C 175.97229,74.447257 175.69873,74.431441 177,72 c 1.42561,-2.663775 0.89542,-2.564584 -7.39507,1.383506 -3.90771,1.860928 -8.20682,3.719625 -9.55358,4.130436 l -2.44865,0.746931 2.69865,-3.207162 C 162.70206,72.20063 163.86521,69 162.50134,69 c -0.27426,0 -3.11596,2.032524 -6.3149,4.516719 -7.80943,6.064577 -11.31043,7.044657 -14.19528,3.973876 l -2.18014,-2.320662 2.58829,-1.695918 2.5883,-1.695918 -2.42529,-1.907733 c -2.26149,-1.778893 -2.71694,-1.80615 -6.7438,-0.403601 -6.03288,2.10124 -8.12977,1.910563 -10.63157,-0.966763 -1.19555,-1.375 -3.06118,-2.5 -4.14586,-2.5 -1.08467,0 -3.28198,-1.280415 -4.8829,-2.845366 -3.42704,-3.350037 -3.12778,-4.292572 3.51462,-11.069394 C 122.05276,49.657122 124,47.119703 124,46.446531 c 0,-0.673172 1.59865,-1.523858 3.55256,-1.890413 1.9539,-0.366555 3.80848,-1.333401 4.12128,-2.148547 C 132.30882,40.752835 138.21841,38 141.13569,38 c 1.0403,0 2.74529,-0.533231 3.78887,-1.184957 1.4698,-0.917911 2.84272,-0.901735 6.092,0.07177 3.87442,1.160803 4.30536,1.098591 5.64572,-0.815043 C 157.4604,34.932298 158.90946,34 159.88241,34 c 0.97296,0 6.79564,2.475 12.9393,5.5 6.14366,3.025 11.42741,5.5 11.74168,5.5 0.31426,0 0.28574,-0.9 -0.0634,-2 -0.34913,-1.1 -0.3571,-2 -0.0177,-2 1.54232,0 7.19498,3.423512 8.84669,5.357961 L 195.15792,48.5 194.55991,45.75 c -0.32891,-1.5125 -0.25194,-2.733817 0.17104,-2.714037 2.30043,0.107574 6.41938,5.664368 11.27735,15.214037 3.00772,5.9125 5.98286,10.75 6.61142,10.75 0.62857,0 1.65275,2.025 2.27596,4.5 0.62322,2.475 1.57664,4.5 2.11872,4.5 0.54208,0 0.9856,1.05785 0.9856,2.350777 0,1.292927 0.51143,3.817868 1.13651,5.61098 l 1.13652,3.260204 2.42017,-6.86098 c 1.33109,-3.77354 2.80469,-8.356382 3.27466,-10.184094 0.46998,-1.827712 1.51624,-4.077712 2.32504,-5 0.8088,-0.922288 1.80745,-2.801887 2.21923,-4.176887 2.56482,-8.564324 11.024,-20.013181 14.77267,-19.993677 1.36434,0.0071 4.7152,5.390076 4.7152,7.574717 0,0.780428 0.48391,1.41896 1.07537,1.41896 0.59145,0 0.95985,1.2375 0.81867,2.75 -0.14118,1.5125 0.0872,3.784533 0.50757,5.048963 0.51947,1.562656 0.20011,3.159947 -0.99716,4.987202 C 249.47936,67.724229 248.38236,79 250.02161,79 c 1.65262,0 1.09609,1.979136 -1.52161,5.411113 -1.375,1.802718 -2.5,4.038525 -2.5,4.968461 0,0.929936 -0.77798,2.878135 -1.72884,4.32933 -1.26994,1.938172 -1.40265,2.747265 -0.5,3.048151 1.94054,0.646846 1.46104,3.538985 -1.78698,10.778205 -2.06651,4.60587 -2.70503,7.09617 -2.02848,7.91137 0.66637,0.80292 0.51569,1.86305 -0.46351,3.26105 -1.35036,1.92792 -1.26181,2.10732 1.27848,2.59019 13.51949,2.56985 21.01391,5.70583 27.37948,11.45675 5.16404,4.6654 6.41555,7.73307 4.40603,10.79998 C 269.137,148.77293 242.5428,167.21428 224,177.22516 198.62435,190.92496 129.06352,217.4914 105.49844,222.48288 97.809493,224.11153 82.140719,224.27222 72,222.82641 z M 202,85 c 0,-0.55 0.19844,-1 0.44098,-1 0.24254,0 0.7191,0.45 1.05902,1 0.33992,0.55 0.14148,1 -0.44098,1 C 202.47656,86 202,85.55 202,85 z m 15.625,-12.797746 c -0.27117,-0.43876 -0.0796,-1.45126 0.42567,-2.25 0.71729,-1.133859 0.92206,-0.958959 0.93402,0.797746 0.0157,2.313034 -0.49232,2.855684 -1.35969,1.452254 z m -2.17885,-6.289386 c -0.36954,-0.597923 -0.17109,-1.587923 0.44098,-2.2 C 216.70429,62.895711 217,63.184583 217,64.8 c 0,2.414511 -0.51946,2.786548 -1.55385,1.112868 z"
       id="path3068"
       inkscape:connector-curvature="0" />
  </g>
</svg>
